<?xml version="1.0" encoding="utf-8"?>
<!-- Generator: Adobe Illustrator 25.3.1, SVG Export Plug-In . SVG Version: 6.00 Build 0)  -->
<svg version="1.1" id="Layer_1" xmlns="http://www.w3.org/2000/svg" xmlns:xlink="http://www.w3.org/1999/xlink" x="0px" y="0px"
   viewBox="0 0 48 48" style="enable-background:new 0 0 48 48;" xml:space="preserve">
<style type="text/css">
  .st010{fill:#205C40;}
  .st111{fill:#B3D7D3;}
</style>
<g>
  <path class="st010" d="M30.8,42.3C30.8,42.3,30.8,42.3,30.8,42.3c-0.4,0-0.7-0.3-0.7-0.7c-0.6-5.1-2.2-6.9-6.3-7.3
    c-0.4,0-0.7-0.4-0.7-0.7s0.3-0.7,0.7-0.7c4.1-0.5,5.7-2.2,6.3-7.3c0-0.4,0.4-0.7,0.7-0.7c0,0,0,0,0,0c0.4,0,0.7,0.3,0.7,0.7
    c0.5,4.8,1.9,6.4,6.4,7.3c0.4,0.1,0.6,0.4,0.6,0.8s-0.3,0.7-0.7,0.7c-3.5,0.2-5.4,1.4-6.3,7.4C31.5,42.1,31.2,42.3,30.8,42.3z
     M27,33.6c1.9,0.8,3.1,2.2,3.8,4.4c0.8-2.4,2-3.9,3.9-4.6c-2-0.9-3.2-2.2-3.9-4.2C30,31.5,28.9,32.8,27,33.6z"/>
</g>
<path class="st111" d="M25.2,28.1c-0.9-5-2.9-7.2-6.8-8c-0.3-0.1-0.3-0.5,0-0.6c3.9-0.9,5.8-3.1,6.8-7.8c0.1-0.3,0.5-0.3,0.6,0
  c0.8,4.3,2.5,6.5,6.8,7.7c0.3,0.1,0.3,0.5,0,0.6c-3.4,0.6-5.6,2.6-6.7,8.1C25.7,28.4,25.2,28.4,25.2,28.1z"/>
<g>
  <path class="st010" d="M20.3,37.3C20.3,37.3,20.3,37.3,20.3,37.3c-0.4,0-0.7-0.3-0.7-0.7C18.4,27.4,15.5,23.9,7.7,23
    c-0.4,0-0.7-0.4-0.7-0.7c0-0.4,0.3-0.7,0.7-0.7c7.8-1,10.7-4.3,11.8-13.6c0-0.4,0.3-0.7,0.8-0.7c0.4,0,0.7,0.3,0.7,0.7
    C22,16.8,24.7,20,32.9,21.6c0.4,0.1,0.6,0.4,0.6,0.8S33.2,23,32.8,23c-6.3,0.3-10.2,2.6-11.8,13.7C21,37.1,20.7,37.3,20.3,37.3z
     M11.6,22.3c4.7,1.4,7.4,4.5,8.7,10.1c1.6-6.6,4.5-9.3,8.5-10.3c-4.9-1.6-7.4-4.4-8.6-9.6C18.9,18,16.3,20.9,11.6,22.3z"/>
</g>
</svg>
