<?xml version="1.0" encoding="utf-8"?>
<!-- Generator: Adobe Illustrator 25.3.1, SVG Export Plug-In . SVG Version: 6.00 Build 0)  -->
<svg version="1.1" id="Layer_1" xmlns="http://www.w3.org/2000/svg" xmlns:xlink="http://www.w3.org/1999/xlink" x="0px" y="0px"
   viewBox="0 0 48 48" style="enable-background:new 0 0 48 48;" xml:space="preserve">
<style type="text/css">
  .st0{fill:#B3D7D3;}
  .st1{fill:#205C40;}
</style>
<path class="st0" d="M38,28.8c-2.9,4.8-9.8,5.9-9.8,5.9S26,28,28.9,23.2s9.8-5.9,9.8-5.9S40.9,24,38,28.8z"/>
<g>
  <path class="st1" d="M24.2,19.8c-2.2,0-4-2.2-4-4.9s1.8-4.9,4-4.9c2.2,0,4,2.2,4,4.9S26.4,19.8,24.2,19.8z M24.2,11.5
    c-1.4,0-2.5,1.5-2.5,3.4s1.1,3.4,2.5,3.4c1.4,0,2.5-1.5,2.5-3.4S25.6,11.5,24.2,11.5z"/>
</g>
<g>
  <path class="st1" d="M24.2,11.5c-1.4,0-2.5-1-2.5-2.2S22.8,7,24.2,7c1.4,0,2.5,1,2.5,2.2S25.6,11.5,24.2,11.5z M24.2,8.5
    c-0.5,0-1,0.3-1,0.8s0.4,0.8,1,0.8s1-0.3,1-0.8S24.7,8.5,24.2,8.5z"/>
</g>
<g>
  <path class="st1" d="M12.6,32.3c-0.2,0-0.4-0.1-0.5-0.2c-0.3-0.3-0.3-0.8,0-1.1c0,0,1.2-1.2,2.8-2.5c0.3-0.7,0.6-1.4,0.9-2
    c0.4-0.9,0.9-1.8,1.1-2.5c0.5-2.9,2.6-3.4,4-3.8c1.3-0.3,1.5-0.4,1.4-1.2c0-0.4,0.2-0.8,0.7-0.8c0.4,0,0.8,0.2,0.8,0.7
    c0.3,2.2-1.4,2.6-2.6,2.9c-1.4,0.3-2.5,0.6-2.9,2.6c-0.3,0.9-0.7,1.8-1.2,2.8c-0.3,0.7-0.7,1.4-1,2.1c0,0.1-0.1,0.2-0.2,0.3
    c-1.6,1.4-2.8,2.5-2.8,2.6C13,32.3,12.8,32.3,12.6,32.3z M15.5,29L15.5,29L15.5,29z"/>
</g>
<g>
  <path class="st1" d="M15.5,42.1c-2.8,0-4.7-0.5-5.9-1.4c-0.8-0.6-1.2-1.3-1.3-2.2c0-0.1,0-0.1,0-0.2c0.4-3,6.9-4,10.5-4.1
    c0.3-1.2,0.8-2.5,1.4-3.8c0.2-1,0-2.3-0.6-4c-0.1-0.4,0.1-0.8,0.5-1c0.4-0.1,0.8,0.1,1,0.5c0.7,2.1,0.9,3.6,0.6,4.9
    c0,0,0,0.1,0,0.1c-0.6,1.5-1.1,3-1.5,4.2c-0.1,0.3-0.4,0.6-0.7,0.6c-4.4,0-9.2,1.4-9.5,2.8c0.1,0.4,0.3,0.8,0.7,1.1
    c1.6,1.2,5.3,1.4,11.2,0.5c0.7-0.1,1.3-0.3,1.8-0.5c2-0.8,3.8-1.2,5.5-1.6c0.4-0.1,0.8,0.2,0.9,0.6s-0.2,0.8-0.6,0.9
    c-1.6,0.3-3.3,0.7-5.2,1.5c-0.6,0.3-1.4,0.5-2.2,0.6C19.4,41.9,17.3,42.1,15.5,42.1z M20.8,30.6L20.8,30.6L20.8,30.6z"/>
</g>
<g>
  <path class="st1" d="M36.3,32.7c-0.2,0-0.3-0.1-0.5-0.2l-3.1-2.6c-0.1-0.1-0.1-0.1-0.2-0.2c-0.3-0.5-0.6-0.9-0.9-1.5
    c-0.9-1.5-2-3.3-2.4-5c-0.3-1-1.1-1.3-2.3-1.6c-1.1-0.3-2.7-0.7-2.4-2.9c0.1-0.4,0.4-0.7,0.8-0.6c0.4,0.1,0.7,0.4,0.6,0.8
    c-0.1,0.7,0,0.9,1.3,1.2c1.1,0.3,2.7,0.7,3.3,2.7c0.4,1.6,1.4,3.2,2.2,4.7c0.3,0.5,0.6,0.9,0.8,1.4l3,2.5c0.3,0.3,0.4,0.7,0.1,1.1
    C36.7,32.6,36.5,32.7,36.3,32.7z"/>
</g>
<g>
  <path class="st1" d="M31.7,42.3c-1,0-2-0.1-2.8-0.3c-0.4-0.1-0.6-0.5-0.5-0.9c0.1-0.4,0.5-0.6,0.9-0.5c0.7,0.2,1.6,0.3,2.4,0.3
    c1.9-0.1,6.5-0.5,6.5-2.6c0-0.3-0.1-0.6-0.4-0.8c-1.5-1.5-6.5-1.6-8.3-1.5c-0.3,0-0.6-0.2-0.7-0.5c-0.2-0.7-0.7-1.6-1.3-2.4
    c-0.3-0.5-0.7-1.1-1-1.6c-0.1-0.1-0.1-0.2-0.1-0.4c0-2,0.1-3.5,0.4-4.9c0.1-0.4,0.5-0.7,0.9-0.6c0.4,0.1,0.7,0.5,0.6,0.9
    c-0.3,1.3-0.4,2.7-0.4,4.5c0.3,0.5,0.5,0.9,0.8,1.4c0.5,0.8,0.9,1.5,1.2,2.2c1.8,0,6.9,0.1,8.8,2c0.5,0.5,0.8,1.2,0.8,1.9
    C39.8,39.9,38.4,42.1,31.7,42.3C31.7,42.3,31.7,42.3,31.7,42.3z"/>
</g>
</svg>
