<?xml version="1.0" encoding="utf-8"?>
<!-- Generator: Adobe Illustrator 25.3.1, SVG Export Plug-In . SVG Version: 6.00 Build 0)  -->
<svg version="1.1" id="Layer_1" xmlns="http://www.w3.org/2000/svg" xmlns:xlink="http://www.w3.org/1999/xlink" x="0px" y="0px"
   viewBox="0 0 48 48" style="enable-background:new 0 0 48 48;" xml:space="preserve">
<style type="text/css">
  .st0{fill:#B3D7D3;}
  .st1{fill:#205C40;}
</style>
<path class="st0" d="M40.6,28.8h-2.9c-0.3,0-0.5-0.2-0.5-0.5v-2.9c0-0.3-0.2-0.5-0.5-0.5H33c-0.3,0-0.5,0.2-0.5,0.5v2.9
  c0,0.3-0.2,0.5-0.5,0.5h-2.9c-0.3,0-0.5,0.2-0.5,0.5V33c0,0.3,0.2,0.5,0.5,0.5H32c0.3,0,0.5,0.2,0.5,0.5v3c0,0.3,0.2,0.5,0.5,0.5
  h3.7c0.3,0,0.5-0.2,0.5-0.5v-2.9c0-0.3,0.2-0.5,0.5-0.5h2.9c0.3,0,0.5-0.2,0.5-0.5v-3.7C41.1,29.1,40.9,28.8,40.6,28.8z"/>
<g>
  <path class="st1" d="M23.8,38.2c-0.1,0-13.3-0.2-13.3-21.4c0-0.2,0.1-0.4,0.2-0.5c0.2-0.1,0.4-0.2,0.6-0.2c4.8,0.4,7.6-1.5,9.8-6.5
    c0.3-0.8,1-1.2,1.8-1.2h1.9c0.8,0,1.5,0.5,1.8,1.3c2.1,4.9,4.9,6.8,9.7,6.4c0.2,0,0.4,0.1,0.6,0.2c0.2,0.1,0.2,0.3,0.2,0.5
    c0,10.9-3.5,16.2-6.5,18.6C27.2,38.2,23.9,38.2,23.8,38.2z M12,17.7c0.3,18.8,11.4,19.1,11.8,19.1c0.5,0,11.4-0.3,11.7-19.1
    c-5,0.1-8.2-2.2-10.4-7.4C25,10,24.8,10,24.7,10h-1.9c-0.1,0-0.3,0-0.4,0.3C20.1,15.6,16.9,17.8,12,17.7z"/>
</g>
<g>
  <path class="st1" d="M22.8,29.2c-0.2,0-0.3,0-0.4-0.1l-3.7-2.6c-0.3-0.2-0.4-0.7-0.2-1c0.2-0.3,0.7-0.4,1-0.2l3.1,2.2l5.2-7.4
    c0.2-0.3,0.7-0.4,1-0.2c0.3,0.2,0.4,0.7,0.2,1l-5.6,8c-0.1,0.2-0.3,0.3-0.5,0.3C22.9,29.1,22.8,29.2,22.8,29.2z"/>
</g>
</svg>
