<?xml version="1.0" encoding="utf-8"?>
<!-- Generator: Adobe Illustrator 25.3.1, SVG Export Plug-In . SVG Version: 6.00 Build 0)  -->
<svg version="1.1" id="Layer_1" xmlns="http://www.w3.org/2000/svg" xmlns:xlink="http://www.w3.org/1999/xlink" x="0px" y="0px"
   viewBox="0 0 48 48" style="enable-background:new 0 0 48 48;" xml:space="preserve">
<style type="text/css">
  .st0{fill:#B3D7D3;}
  .st1{fill:#205C40;}
</style>
<g>
  <path class="st0" d="M33.2,39c-3.5,0-6.3-2.8-6.3-6.3s2.8-6.3,6.3-6.3s6.3,2.8,6.3,6.3S36.7,39,33.2,39z M33.2,29.4
    c-1.8,0-3.3,1.5-3.3,3.3s1.5,3.3,3.3,3.3s3.3-1.5,3.3-3.3S35,29.4,33.2,29.4z"/>
</g>
<g>
  <path class="st0" d="M36.6,30.3c-0.3,0-0.5-0.1-0.7-0.3c-0.4-0.4-0.4-1,0-1.4l3.9-3.9c0.4-0.4,1-0.4,1.4,0s0.4,1,0,1.4L37.3,30
    C37.1,30.2,36.9,30.3,36.6,30.3z"/>
</g>
<g>
  <path class="st0" d="M41,30c-0.6,0-1-0.4-1-1v-3.1h-3.1c-0.6,0-1-0.4-1-1s0.4-1,1-1H41c0.6,0,1,0.4,1,1V29C42,29.6,41.6,30,41,30z"
    />
</g>
<g>
  <path class="st1" d="M16.7,15.4c-0.2,0-0.5-0.1-0.6-0.3c-1.5-2.1-1.8-4.3-0.9-6c1.1-2,3.6-3,7.2-2.8c0.7,0.1,1.4,0,2.2-0.2
    c1.6-0.4,2.8-0.3,3.6,0.4c0.8,0.7,1.1,2,0.9,3.9c0,0.4-0.4,0.7-0.8,0.7c-0.4,0-0.7-0.4-0.7-0.8c0.1-1.3,0-2.2-0.4-2.6
    c-0.4-0.3-1.1-0.4-2.2-0.1c-1,0.2-1.9,0.3-2.7,0.2c-2.9-0.1-5,0.6-5.8,2c-0.5,0.9-0.4,2,0.1,3.1c1.3-1.9,3.8-2.1,6.2-2.2
    c0.9,0,1.9-0.1,2.8-0.2c0.4-0.1,0.8,0.2,0.9,0.6s-0.2,0.8-0.6,0.9c-1,0.2-2,0.2-2.9,0.3c-3.1,0.2-4.9,0.4-5.5,2.6
    c-0.1,0.3-0.3,0.5-0.6,0.6C16.8,15.3,16.7,15.4,16.7,15.4z"/>
</g>
<g>
  <path class="st1" d="M31.2,16.5c-0.1,0-0.3,0-0.4-0.1c-1.2-0.9-2.5-2-2.5-3.5c0-0.4,0.3-0.8,0.8-0.8s0.8,0.3,0.8,0.8
    c0,0.6,0.4,1.2,1.3,1.9c0.6-0.8,0.9-1.6,0.8-2.2c-0.1-0.7-0.6-1.4-1.5-2.1c-0.6-0.1-1,0-1.3,0.4c-0.2,0.3-0.7,0.4-1,0.2
    c-0.3-0.2-0.4-0.7-0.1-1c0.9-1.3,2.1-1.2,3-1c0.1,0,0.2,0.1,0.3,0.1c1.3,1,2.1,2.1,2.2,3.3c0.1,1.3-0.4,2.6-1.6,3.9
    C31.6,16.4,31.4,16.5,31.2,16.5z"/>
</g>
<g>
  <path class="st1" d="M24.3,28.2c-5.6,0-7.1-4.2-8-7.4c-1.9-0.6-2.6-2.3-2.4-3.7c0.2-1.1,1-1.9,2-2.1l0-0.1C15.8,14.4,16,14,16.5,14
    c0.4-0.1,0.8,0.2,0.9,0.6l0.2,1c0,0.2,0,0.5-0.2,0.7c-0.2,0.2-0.4,0.3-0.7,0.2c-0.8-0.1-1.2,0.4-1.3,0.9c-0.2,0.8,0.3,1.8,1.7,2.1
    c0.3,0.1,0.5,0.3,0.5,0.5c1.1,3.8,2.3,6.8,6.7,6.8c4.3,0,5.4-2.7,6.6-6.9c0.1-0.3,0.3-0.5,0.5-0.5c1.4-0.3,1.8-1.3,1.6-2.1
    c-0.1-0.5-0.5-1-1.2-0.9c0,0-0.1,0-0.1,0h-0.5c-0.4,0-0.8-0.3-0.8-0.8s0.3-0.8,0.8-0.8h0.4c1.4-0.2,2.6,0.7,2.9,2.1
    c0.3,1.4-0.4,3.1-2.3,3.7C31.2,24.2,29.9,28.2,24.3,28.2z"/>
</g>
<g>
  <path class="st1" d="M10.9,38.2C10.9,38.2,10.9,38.2,10.9,38.2c-0.5,0-0.8-0.4-0.7-0.8c0.2-3.9,2.9-4.7,5.3-5.5
    c2.5-0.8,4.6-1.4,4.6-5c0-0.4,0.3-0.8,0.8-0.8s0.8,0.3,0.8,0.8c0,4.7-3.1,5.7-5.6,6.5c-2.3,0.7-4.1,1.3-4.3,4.2
    C11.6,37.8,11.3,38.2,10.9,38.2z"/>
</g>
<g>
  <path class="st1" d="M37.5,38.2c-0.4,0-0.7-0.3-0.7-0.7c-0.2-2.9-2-3.4-4.3-4.2c-2.5-0.8-5.6-1.8-5.6-6.5c0-0.4,0.3-0.8,0.8-0.8
    s0.8,0.3,0.8,0.8c0,3.6,2,4.2,4.6,5c2.4,0.8,5.1,1.6,5.3,5.5C38.3,37.8,38,38.1,37.5,38.2C37.5,38.2,37.5,38.2,37.5,38.2z"/>
</g>
<g>
  <path class="st1" d="M24.2,36.4c-2.6,0-5.3-1.2-7.9-3.7c-0.3-0.3-0.3-0.8,0-1.1c0.3-0.3,0.8-0.3,1.1,0c4.6,4.3,9.1,4.3,13.7,0
    c0.3-0.3,0.8-0.3,1.1,0c0.3,0.3,0.3,0.8,0,1.1C29.5,35.2,26.9,36.4,24.2,36.4z"/>
</g>
</svg>
