<?xml version="1.0" encoding="utf-8"?>
<!-- Generator: Adobe Illustrator 25.3.1, SVG Export Plug-In . SVG Version: 6.00 Build 0)  -->
<svg version="1.1" id="Layer_1" xmlns="http://www.w3.org/2000/svg" xmlns:xlink="http://www.w3.org/1999/xlink" x="0px" y="0px"
   viewBox="0 0 48 48" style="enable-background:new 0 0 48 48;" xml:space="preserve">
<style type="text/css">
  .st0{fill:#B3D7D3;}
  .st1{fill:#205C40;}
</style>
<path class="st0" d="M32.7,26c-4.4-1.3-7.4-5.3-7.4-9.9v-4.5c0-0.3-0.2-0.6-0.6-0.6h-1.4c-0.3,0-0.6,0.2-0.6,0.6v4.5
  c0,4.6-3,8.6-7.4,9.9l-3.1,0.9c-0.3,0.1-0.5,0.4-0.4,0.7l0.4,1.3c0.1,0.3,0.4,0.5,0.7,0.4l3.5-1c3.4-1,6.1-3.4,7.6-6.4
  c1.5,3,4.2,5.4,7.6,6.4l3.5,1c0.3,0.1,0.6-0.1,0.7-0.4l0.4-1.3c0.1-0.3-0.1-0.6-0.4-0.7L32.7,26z"/>
<g>
  <path class="st1" d="M10.7,37.7c-0.4,0-0.8-0.1-1.2-0.3c-0.8-0.4-1.3-1.2-1.3-2.1v-7.5C8.2,20.7,14,15,21.1,15
    c0.4,0,0.8,0.3,0.8,0.8v11.8c0,2.1-1.1,4-2.9,5.1c-0.4,0.2-0.8,0.1-1-0.2c-0.2-0.4-0.1-0.8,0.2-1c1.3-0.8,2.1-2.3,2.1-3.9v-11
    c-5.9,0.4-10.6,5.3-10.6,11.3v7.5c0,0.3,0.2,0.6,0.5,0.8c0.3,0.2,0.7,0.2,1,0l2.4-1.6c0.3-0.2,0.8-0.1,1,0.2s0.1,0.8-0.2,1L12,37.3
    C11.6,37.6,11.2,37.7,10.7,37.7z"/>
</g>
<g>
  <path class="st1" d="M37.3,37.7c-0.5,0-0.9-0.1-1.3-0.4l-2.4-1.6c-0.3-0.2-0.4-0.7-0.2-1c0.2-0.3,0.7-0.4,1-0.2l2.4,1.6
    c0.3,0.2,0.6,0.2,0.9,0c0.3-0.2,0.5-0.5,0.5-0.8v-7.5c0-6-4.7-10.9-10.6-11.3v11c0,1.6,0.8,3,2.1,3.9c0.4,0.2,0.5,0.7,0.2,1
    c-0.2,0.4-0.7,0.5-1,0.2c-1.8-1.1-2.9-3-2.9-5.1V15.7c0-0.4,0.3-0.8,0.8-0.8c7.1,0,12.8,5.8,12.8,12.8v7.5c0,0.9-0.5,1.7-1.3,2.1
    C38.1,37.6,37.7,37.7,37.3,37.7z"/>
</g>
</svg>
