<?xml version="1.0" encoding="utf-8"?>
<!-- Generator: Adobe Illustrator 25.3.1, SVG Export Plug-In . SVG Version: 6.00 Build 0)  -->
<svg version="1.1" id="Layer_1" xmlns="http://www.w3.org/2000/svg" xmlns:xlink="http://www.w3.org/1999/xlink" x="0px" y="0px"
   viewBox="0 0 48 48" style="enable-background:new 0 0 48 48;" xml:space="preserve">
<style type="text/css">
  .st0{fill:#B3D7D3;}
  .st1{fill:#205C40;}
</style>
<path class="st0" d="M33,22.9c-0.7,1.7-2.4,5.1-6.3,7.1c-0.2,0.1-0.2,0.5,0,0.6c3.7,2.1,5.6,5.6,6.3,7.2c0.1,0.3,0.5,0.3,0.6,0
  c0.7-1.6,2.5-5.1,6.3-7.2c0.2-0.1,0.3-0.5,0-0.6c-3.8-2-5.6-5.4-6.3-7.1C33.5,22.6,33.1,22.6,33,22.9z"/>
<g>
  <path class="st1" d="M23.5,38c-2.8,0-5.6-0.9-8-2.5c-3.2-2.2-5.3-5.4-6-9.1c-0.7-3.7,0.1-7.5,2.3-10.7c2.2-3.2,5.4-5.3,9.1-6
    c1.8-0.4,3.8-0.4,5.9,0.1c0.3,0.1,0.6,0.4,0.6,0.7c0,0.3-0.2,0.6-0.5,0.7c-4.6,1.4-7.4,6.1-6.6,10.9c0.4,2.5,1.9,4.7,4,6.1
    c2.1,1.4,4.6,2,7.2,1.5c0,0,0.1,0,0.1,0c2-0.1,3.4-1,4.2-1.8c0.3-0.2,0.6-0.3,0.9-0.1c0.3,0.2,0.4,0.6,0.3,0.9
    c-1.7,4.7-5.9,8.2-10.8,9.1C25.3,37.9,24.4,38,23.5,38z M23.5,10.9c-0.8,0-1.6,0.1-2.3,0.2c-3.4,0.6-6.3,2.6-8.2,5.4
    c-1.9,2.8-2.7,6.2-2,9.5c0.6,3.3,2.5,6.2,5.4,8.2c2.8,1.9,6.2,2.7,9.5,2c3.5-0.7,6.6-2.8,8.5-5.8c-0.9,0.4-1.8,0.6-2.7,0.6
    c-2.9,0.6-5.8-0.1-8.2-1.7c-2.4-1.7-4.1-4.2-4.6-7.1c-0.8-4.6,1.3-9.1,5.1-11.4C23.8,10.9,23.6,10.9,23.5,10.9z"/>
</g>
<path class="st0" d="M28.3,13.7c-0.5,1.2-1.7,3.2-4,4.5c-0.3,0.2-0.3,0.6,0,0.7c2.2,1.3,3.4,3.4,4,4.6c0.2,0.3,0.6,0.3,0.8,0
  c0.6-1.2,1.8-3.2,4-4.6c0.3-0.2,0.3-0.6,0-0.7c-2.3-1.3-3.4-3.3-4-4.5C28.9,13.4,28.4,13.4,28.3,13.7z"/>
</svg>
