<?xml version="1.0" encoding="utf-8"?>
<!-- Generator: Adobe Illustrator 25.3.1, SVG Export Plug-In . SVG Version: 6.00 Build 0)  -->
<svg version="1.1" id="Layer_1" xmlns="http://www.w3.org/2000/svg" xmlns:xlink="http://www.w3.org/1999/xlink" x="0px" y="0px"
	 viewBox="0 0 48 48" style="enable-background:new 0 0 48 48;" xml:space="preserve">
<style type="text/css">
	.st0{fill:#B3D7D3;}
	.st1{fill:#205C40;}
</style>
<path class="st0" d="M15.8,24h-4.9l0.7-5.2c0-0.3-0.4-0.5-0.5-0.2l-5.6,8.5c-0.1,0.2,0,0.5,0.2,0.5h4.7l-0.7,4.9
	c-0.1,0.4,0.4,0.5,0.6,0.2l5.8-8.3C16.3,24.3,16.1,24,15.8,24z"/>
<g>
	<path class="st1" d="M20.4,30.4c-0.1,0-0.2,0-0.3,0c-0.6-0.2-1-0.8-0.9-1.5l0.8-7.4h-5.2c-0.4,0-0.8-0.2-1-0.6
		c-0.2-0.4-0.2-1,0-1.4L21,5.4c0.2-0.5,0.7-0.8,1.3-0.6c0.6,0.2,0.9,0.8,0.8,1.4l-0.9,7.7h5.6c0.4,0,0.8,0.2,1,0.6
		c0.3,0.4,0.2,1-0.1,1.5l-7.4,13.8C21.2,30.1,20.8,30.4,20.4,30.4z M20,29.1C20,29.1,20,29.1,20,29.1L20,29.1z M15.3,20h5.5
		c0.2,0,0.4,0.1,0.6,0.2s0.2,0.4,0.2,0.6l-0.7,6.8l6.6-12.3h-6c-0.2,0-0.4-0.1-0.6-0.3c-0.1-0.2-0.2-0.4-0.2-0.6l0.8-6.6L15.3,20z
		 M27.8,15.4L27.8,15.4L27.8,15.4z M27.5,15.1L27.5,15.1L27.5,15.1z M22.4,6L22.4,6C22.4,6,22.4,6,22.4,6z M21.7,5.9
		C21.7,5.9,21.7,5.9,21.7,5.9L21.7,5.9z"/>
</g>
<path class="st0" d="M35.8,9.3h-3.6l0.5-3.8c0-0.2-0.3-0.3-0.4-0.1l-4.1,6.2c-0.1,0.1,0,0.3,0.2,0.3h3.4l-0.5,3.6
	c0,0.3,0.3,0.4,0.5,0.2l4.2-6C36.1,9.6,36,9.3,35.8,9.3z"/>
<g>
	<path class="st1" d="M34.2,30.8c-0.4,0-0.8-0.3-0.8-0.8s0.3-0.8,0.8-0.8c1.4,0,2.3-0.2,2.7-0.7c0.1-0.1,0.1-0.2,0-0.4
		c-0.9-1.6-1.8-3.4-2.7-5.3c-0.1-0.2-0.1-0.5,0-0.7l0.9-1.4c0.2-0.3,0.3-0.6,0.2-0.8c-0.6-4.1-3.9-7.3-8.6-8.5
		c-0.4-0.1-0.6-0.5-0.5-0.9c0.1-0.4,0.5-0.6,0.9-0.5c5.3,1.4,8.9,5.1,9.7,9.7c0.1,0.7,0,1.4-0.4,2l-0.6,1c0.8,1.8,1.7,3.4,2.5,4.9
		c0.4,0.8,0.3,1.6-0.2,2.1C37.3,30.3,36.1,30.8,34.2,30.8z"/>
</g>
<g>
	<path class="st1" d="M15.1,39.5c-0.1,0-0.1,0-0.2,0c-0.4-0.1-0.7-0.5-0.6-0.9l1.7-7.4c-2.3-1.4-5.1-4.7-6-8.5
		c-0.6-2.6-0.2-5,1.1-6.9c0.2-0.3,0.7-0.4,1-0.2c0.3,0.2,0.4,0.7,0.2,1c-1.4,1.9-1.2,4.1-0.9,5.6c0.8,3.5,3.6,6.7,5.7,7.8
		c0.3,0.2,0.5,0.5,0.4,0.8l-1.8,7.9C15.8,39.2,15.4,39.5,15.1,39.5z"/>
</g>
<g>
	<path class="st1" d="M32.1,38.9c-2.6,0-4.9-0.3-6.7-0.9c-0.1,0-0.2-0.1-0.2-0.1c-1.4-1-2.4-2.5-2.9-4.4c-0.1-0.4,0.1-0.8,0.5-0.9
		c0.4-0.1,0.8,0.1,0.9,0.5c0.4,1.5,1.1,2.7,2.2,3.5c2,0.6,4.4,0.8,7.3,0.7c0.2-0.2,0.5-0.6,0.4-1.7c0-0.2,0.1-0.5,0.3-0.6
		c0.3-0.2,0.5-0.5,0.6-0.6L34,33.6c-0.1-0.2-0.2-0.4-0.1-0.7s0.2-0.4,0.5-0.5c0.3-0.1,0.5-0.2,0.6-0.2l-0.1-2.1
		c0-0.4,0.3-0.8,0.7-0.8c0.4,0,0.8,0.3,0.8,0.7l0.1,2.3c0,0.5-0.3,0.8-0.7,1.1l0.2,0.2C36,33.9,36,34,36,34.2c0,0.6-0.3,1.2-0.9,1.7
		c0,1.4-0.4,2.3-1.3,2.8c-0.1,0.1-0.2,0.1-0.3,0.1C33,38.9,32.6,38.9,32.1,38.9z"/>
</g>
</svg>
