<?xml version="1.0" encoding="utf-8"?>
<!-- Generator: Adobe Illustrator 25.3.1, SVG Export Plug-In . SVG Version: 6.00 Build 0)  -->
<svg version="1.1" id="Layer_1" xmlns="http://www.w3.org/2000/svg" xmlns:xlink="http://www.w3.org/1999/xlink" x="0px" y="0px"
   viewBox="0 0 48 48" style="enable-background:new 0 0 48 48;" xml:space="preserve">
<style type="text/css">
  .st0{fill:#B3D7D3;}
  .st1{fill:#205C40;}
</style>
<path class="st0" d="M22.1,27c-2.2,0.2-2.4,0.2-3.2-1.8c-0.1-0.2-0.3-0.3-0.5-0.3h-2.7c-0.2,0-0.4,0.1-0.5,0.3
  c-0.9,2-1.1,1.9-3.2,1.8c0,8.2,5,9.9,5,9.9S22.1,35.2,22.1,27z"/>
<g>
  <path class="st1" d="M22.4,37.7C22.4,37.7,22.3,37.6,22.4,37.7c-0.5,0-0.8-0.4-0.7-0.8c0.6-5.4-0.9-6-3-6.9c-1.7-0.7-3.7-1.6-4.8-5
    c-3-0.9-4.7-2.1-5.3-3.8c-0.9-2.5,0.9-5.2,2.4-7.4c0.7-1,1.5-2.1,1.5-2.7c0.1-0.4,0.4-0.7,0.8-0.6c0.4,0.1,0.7,0.4,0.6,0.8
    c-0.1,1-0.9,2.1-1.8,3.4c-1.3,1.9-2.9,4.3-2.3,6c0.5,1.2,2,2.2,4.7,2.9c0.3,0.1,0.5,0.3,0.5,0.5c0.9,3,2.4,3.7,4.1,4.4
    c2.3,1,4.6,2,3.9,8.5C23.1,37.4,22.8,37.7,22.4,37.7z"/>
</g>
<g>
  <path class="st1" d="M32.5,22.1c-0.3,0-0.6-0.2-0.7-0.5l0-0.1c-1.4-3.3-2-4.7-7.8-4.7s-6.3,1.4-7.8,4.7l0,0.1
    c-0.1,0.3-0.5,0.5-0.8,0.4c-1.4-0.2-2.4-0.7-2.9-1.5c-0.4-0.5-0.6-1.3-0.4-2.1c0.3-1.4,1.2-2.6,2-3.8c0.8-1.1,1.5-2.1,1.5-2.9
    c0-0.4,0.3-0.8,0.8-0.8s0.8,0.3,0.8,0.8c0,1.3-0.9,2.5-1.8,3.8c-0.8,1-1.5,2.1-1.8,3.2c-0.1,0.4,0,0.8,0.2,1
    c0.2,0.4,0.7,0.6,1.4,0.8c1.5-3.5,2.8-5.2,8.9-5.2c6.2,0,7.4,1.7,8.9,5.2c0.6-0.2,1-0.4,1.3-0.8c0.2-0.3,0.2-0.7,0.2-1
    c-0.2-1-1-2-1.7-3c-1-1.3-1.9-2.6-1.9-3.9c0-0.4,0.3-0.8,0.8-0.8s0.8,0.3,0.8,0.8c0,0.8,0.8,1.9,1.6,3c0.8,1.1,1.7,2.3,2,3.6
    c0.1,0.7,0,1.5-0.4,2.2c0,0,0,0.1-0.1,0.1c-0.6,0.7-1.6,1.2-2.8,1.5C32.6,22.1,32.5,22.1,32.5,22.1z"/>
</g>
<g>
  <path class="st1" d="M25.6,37.7c-0.4,0-0.7-0.3-0.7-0.7c-0.7-6.5,1.7-7.5,3.9-8.5c1.7-0.7,3.2-1.4,4.1-4.4c0.1-0.3,0.3-0.4,0.5-0.5
    c2.7-0.7,4.2-1.7,4.7-2.9c0.7-1.8-1-4.1-2.3-6c-0.9-1.3-1.7-2.4-1.8-3.4c-0.1-0.4,0.2-0.8,0.6-0.8c0.4-0.1,0.8,0.2,0.8,0.6
    c0.1,0.6,0.8,1.7,1.5,2.7c1.5,2.2,3.4,4.9,2.4,7.4c-0.6,1.7-2.4,2.9-5.3,3.8c-1.1,3.3-3.2,4.2-4.8,5c-2.1,0.9-3.6,1.6-3,6.9
    C26.4,37.2,26.1,37.6,25.6,37.7C25.7,37.6,25.6,37.7,25.6,37.7z"/>
</g>
</svg>
