<?xml version="1.0" encoding="utf-8"?>
<!-- Generator: Adobe Illustrator 25.3.1, SVG Export Plug-In . SVG Version: 6.00 Build 0)  -->
<svg version="1.1" id="Layer_1" xmlns="http://www.w3.org/2000/svg" xmlns:xlink="http://www.w3.org/1999/xlink" x="0px" y="0px"
   viewBox="0 0 48 48" style="enable-background:new 0 0 48 48;" xml:space="preserve">
<style type="text/css">
  .st0{fill:#B3D7D3;}
  .st1{fill:#205C40;}
</style>
<g>
  <path class="st0" d="M31.4,22.8c0,4.1-3.3,7.4-7.4,7.4s-7.4-3.3-7.4-7.4c0-1.6,0.5-3.2,1.4-4.4c1.8-0.8,3.9-1.4,6-1.4
    s4.2,0.6,6,1.4C30.9,19.6,31.4,21.2,31.4,22.8z"/>
</g>
<g>
  <path class="st1" d="M24,34.7c-2.9,0-5.8-0.9-8.8-2.8c-0.4-0.2-0.5-0.7-0.2-1c0.2-0.4,0.7-0.5,1-0.2c2.7,1.7,5.4,2.6,8,2.6
    c6.7,0,12.5-5.9,14-7.6c-1.1-1.2-4.2-4.5-8.3-6.3c-1.4-0.6-3.5-1.3-5.7-1.3c-1.8,0-3.7,0.5-5.7,1.3c-5.1,2.3-8.7,6.7-8.7,6.8
    c-0.3,0.3-0.7,0.4-1.1,0.1c-0.3-0.3-0.4-0.7-0.1-1.1c0.2-0.2,3.9-4.8,9.3-7.2c2.2-1,4.3-1.5,6.3-1.5c2,0,4.1,0.5,6.3,1.5
    c5.4,2.4,9.1,7,9.3,7.2c0.2,0.3,0.2,0.7,0,0.9C39.3,26.3,32.6,34.7,24,34.7z"/>
</g>
<g>
  <path class="st1" d="M39,26.2c-0.3,0-0.6-0.2-0.7-0.5c-1.4-4.7-6.2-10.1-12.4-10.8c-4.2-0.5-10.4,1-16.3,11c-0.2,0.4-0.7,0.5-1,0.3
    c-0.4-0.2-0.5-0.7-0.3-1c6.2-10.7,13.1-12.3,17.7-11.7c6.9,0.8,12.1,6.6,13.6,11.9c0.1,0.4-0.1,0.8-0.5,0.9
    C39.1,26.1,39.1,26.2,39,26.2z"/>
</g>
<g>
  <circle class="st1" cx="24" cy="22.8" r="3.4"/>
</g>
<g>
  <circle class="st0" cx="26.5" cy="20.8" r="1.7"/>
</g>
</svg>
